<svg width="277" height="48" viewBox="0 0 277 48" fill="none" xmlns="http://www.w3.org/2000/svg">
<path d="M84.3078 29.7801C84.3078 33.4241 80.9151 36.0629 76.1403 36.0629H64.957V13.4451H75.7633C80.4125 13.4451 83.6795 15.9582 83.6795 19.4765C83.6795 21.8639 82.423 23.3718 80.5382 24.2514C82.5486 25.0053 84.3078 27.0157 84.3078 29.7801ZM69.8575 17.5917V22.4922H75.6377C77.3968 22.4922 78.5277 21.487 78.5277 20.1048C78.5277 18.7226 77.2712 17.5917 75.6377 17.5917H69.8575ZM76.1403 31.9163C78.0251 31.9163 79.4073 30.7854 79.4073 29.1519C79.4073 27.5184 78.1507 26.3875 76.1403 26.3875H69.8575V31.9163H76.1403Z" fill="white"/>
<path d="M102.779 35.9372L94.9883 27.0158H93.7317V35.9372H88.7056V13.4451H93.7317V22.1152H94.9883L102.528 13.4451H108.433L99.0092 24.2514L109.313 35.9372H102.779Z" fill="white"/>
<path d="M109.313 24.754C109.313 17.9686 114.339 13.0681 121.376 13.0681C128.412 13.0681 133.439 17.9686 133.439 24.754C133.439 31.5393 128.412 36.4398 121.376 36.4398C114.339 36.4398 109.313 31.5393 109.313 24.754ZM128.161 24.754C128.161 20.4817 125.397 17.5917 121.376 17.5917C117.355 17.5917 114.59 20.4817 114.59 24.754C114.59 29.0262 117.355 31.9163 121.376 31.9163C125.397 31.9163 128.161 29.0262 128.161 24.754Z" fill="white"/>
<path d="M152.663 13.4451H157.69V35.9372H152.663V26.8901H142.611V35.9372H137.585V13.4451H142.611V22.3665H152.663V13.4451Z" fill="white"/>
<path d="M168.496 35.9372V17.9686H160.706V13.4451H181.187V17.9686H173.397V35.9372H168.496Z" fill="white"/>
<path d="M202.8 23.3718V35.9372H199.156L198.151 32.4189C197.02 34.3037 194.632 36.4398 190.988 36.4398C186.465 36.4398 183.198 33.4241 183.198 29.2775C183.198 25.1309 186.465 22.2409 193.124 22.2409H198.025C197.774 19.3508 196.266 17.3404 193.501 17.3404C191.24 17.3404 189.732 18.5969 188.978 19.9791L184.454 19.2252C185.585 15.3299 189.481 13.0681 193.753 13.0681C199.282 13.0681 202.8 16.8377 202.8 23.3718ZM197.899 26.1362H193.25C189.48 26.1362 188.224 27.3927 188.224 29.0262C188.224 30.911 189.732 32.1676 192.245 32.1676C195.512 32.1676 197.899 29.7802 197.899 26.1362Z" fill="white"/>
<path d="M222.151 35.9372L214.36 27.0158H213.104V35.9372H208.078V13.4451H213.104V22.1152H214.36L221.9 13.4451H227.805L218.381 24.2514L228.685 35.9372H222.151Z" fill="white"/>
<path d="M237.732 35.9372V17.9686H229.941V13.4451H250.423V17.9686H242.633V35.9372H237.732Z" fill="white"/>
<path d="M275.554 26.1362H257.46C257.962 29.6545 260.475 31.9163 264.245 31.9163C266.884 31.9163 268.894 30.7854 270.025 29.1519L274.674 29.9058C273.041 34.1781 268.643 36.4398 263.868 36.4398C257.083 36.4398 252.182 31.5393 252.182 24.754C252.182 17.9686 257.083 13.0681 263.868 13.0681C270.653 13.0681 275.554 17.9686 275.554 24.5027C275.679 25.1309 275.554 25.6336 275.554 26.1362ZM257.837 22.2409H270.276C269.397 19.4765 267.135 17.466 263.994 17.466C260.978 17.3404 258.591 19.3508 257.837 22.2409Z" fill="white"/>
<path fill-rule="evenodd" clip-rule="evenodd" d="M4.24718 3.37413C0.873047 6.74826 0.873047 12.1788 0.873047 23.04V24.96C0.873047 35.8212 0.873047 41.2517 4.24718 44.6259C7.62131 48 13.0519 48 23.913 48H25.833C36.6942 48 42.1248 48 45.4989 44.6259C48.873 41.2517 48.873 35.8212 48.873 24.96V23.04C48.873 12.1788 48.873 6.74826 45.4989 3.37413C42.1248 0 36.6942 0 25.833 0H23.913C13.0519 0 7.62131 0 4.24718 3.37413ZM8.97305 14.6002C9.23305 27.0802 15.473 34.5801 26.413 34.5801H27.0331V27.4401C31.0531 27.8401 34.0929 30.7801 35.3129 34.5801H40.9931C39.4331 28.9001 35.3328 25.7601 32.7729 24.5601C35.3328 23.0801 38.9329 19.4802 39.7929 14.6002H34.6327C33.5127 18.5602 30.1931 22.1601 27.0331 22.5001V14.6002H21.8729V28.4401C18.6729 27.6401 14.633 23.7602 14.453 14.6002H8.97305Z" fill="white"/>
</svg>
